<svg viewBox="0 0 60 42" fill="none" xmlns="http://www.w3.org/2000/svg">
    <circle cx="44" cy="16" r="16" fill="#FFCB4C" fill-opacity="0.8"/>
    <path fill-rule="evenodd" clip-rule="evenodd" d="M12.0361 27.0923C12.0119 26.7317 11.9995 26.3678 11.9995 26.001C11.9995 17.1644 19.163 10.001 27.9995 10.001C34.4484 10.001 40.0062 13.8163 42.5388 19.3128C44.1769 18.4743 46.0329 18.0012 47.9995 18.0012C54.6269 18.0012 59.9995 23.3738 59.9995 30.0012C59.9995 36.6286 54.6269 42.0012 47.9995 42.0012H47.999H7.99902V42.0007C3.58097 42.0005 -0.000488281 38.4188 -0.000488281 34.0007C-0.000488281 29.5825 3.58123 26.0007 7.99951 26.0007C9.47181 26.0007 10.8512 26.3985 12.0361 27.0923Z" fill="url(#paint0_linear_5_226)"/>
    <defs>
        <linearGradient id="paint0_linear_5_226" x1="-3.75049" y1="10.001" x2="73.2497" y2="42.0008" gradientUnits="userSpaceOnUse">
            <stop stop-color="white"/>
            <stop offset="1" stop-color="#E0E0E0"/>
        </linearGradient>
    </defs>
</svg>
