<svg viewBox="0 0 60 42" fill="none" xmlns="http://www.w3.org/2000/svg">
    <path d="M41.6091 41.5H40.6399L42.3899 34.5H43.3591L41.6091 41.5Z" stroke="#56CCF2" stroke-linecap="square" stroke-linejoin="round"/>
    <path d="M27.6091 41.5H26.6399L28.3899 34.5H29.3591L27.6091 41.5Z" stroke="#56CCF2" stroke-linecap="square" stroke-linejoin="round"/>
    <path d="M35.6091 38.5H34.6399L36.3899 31.5H37.3591L35.6091 38.5Z" stroke="#56CCF2" stroke-linecap="square" stroke-linejoin="round"/>
    <path d="M21.6091 38.5H20.6399L22.3899 31.5H23.3591L21.6091 38.5Z" stroke="#56CCF2" stroke-linecap="square" stroke-linejoin="round"/>
    <path fill-rule="evenodd" clip-rule="evenodd" d="M42.5388 9.89389C44.1768 9.0029 46.0329 8.50024 47.9995 8.50024C54.6269 8.50024 59.9995 14.2088 59.9995 21.2506C59.9995 28.2924 54.6269 34.001 47.9995 34.001H27.9995H7.99951C3.58123 34.001 -0.000488281 30.1953 -0.000488281 25.5007C-0.000488281 20.8062 3.58123 17.0005 7.99951 17.0005C9.47181 17.0005 10.8512 17.4231 12.0362 18.1603C12.0119 17.7771 11.9995 17.3903 11.9995 17.0005C11.9995 7.61137 19.163 0 27.9995 0C34.4483 0 40.0061 4.05378 42.5388 9.89389Z" fill="url(#paint0_linear_5_520)"/>
    <defs>
        <linearGradient id="paint0_linear_5_520" x1="29.9995" y1="38.2498" x2="29.9993" y2="-0.00103878" gradientUnits="userSpaceOnUse">
            <stop stop-color="#C6C2C2"/>
            <stop offset="1" stop-color="white"/>
        </linearGradient>
    </defs>
</svg>
