<svg viewBox="0 0 44 44" fill="none" xmlns="http://www.w3.org/2000/svg">
    <path d="M26.3994 8.38095C26.3994 6.72336 26.9155 5.10298 27.8825 3.72474C28.8494 2.3465 30.2238 1.2723 31.8318 0.637962C33.4398 0.00362728 35.2092 -0.162343 36.9162 0.161038C38.6232 0.484419 40.1913 1.28263 41.422 2.45473C42.6527 3.62682 43.4908 5.12017 43.8303 6.74591C44.1699 8.37166 43.9956 10.0568 43.3296 11.5882C42.6635 13.1196 41.5356 14.4286 40.0884 15.3495C38.6413 16.2704 36.9399 16.7619 35.1994 16.7619L35.1994 14.6667C36.5048 14.6667 37.7808 14.298 38.8662 13.6073C39.9515 12.9167 40.7975 11.935 41.297 10.7864C41.7966 9.63783 41.9273 8.37398 41.6726 7.15467C41.4179 5.93536 40.7893 4.81536 39.8663 3.93628C38.9433 3.05721 37.7673 2.45855 36.487 2.21602C35.2067 1.97348 33.8797 2.09796 32.6737 2.57371C31.4677 3.04946 30.4369 3.85512 29.7117 4.8888C28.9865 5.92248 28.5994 7.13776 28.5994 8.38095H26.3994Z" fill="white"/>
    <path d="M26.3994 36.6667C26.3994 38.1171 26.851 39.5349 27.6971 40.7408C28.5432 41.9468 29.7458 42.8867 31.1528 43.4418C32.5597 43.9968 34.108 44.1421 35.6016 43.8591C37.0953 43.5761 38.4673 42.8777 39.5441 41.8521C40.621 40.8265 41.3544 39.5199 41.6515 38.0973C41.9486 36.6748 41.7961 35.2003 41.2133 33.8603C40.6305 32.5203 39.6436 31.375 38.3773 30.5692C37.111 29.7634 35.6223 29.3333 34.0994 29.3333L34.0994 31.4233C35.1883 31.4233 36.2527 31.7308 37.1581 32.307C38.0635 32.8831 38.7691 33.702 39.1858 34.6601C39.6025 35.6182 39.7116 36.6725 39.4991 37.6896C39.2867 38.7067 38.7623 39.641 37.9924 40.3743C37.2224 41.1076 36.2414 41.6069 35.1735 41.8093C34.1055 42.0116 32.9985 41.9077 31.9926 41.5109C30.9866 41.114 30.1267 40.442 29.5218 39.5797C28.9168 38.7174 28.5939 37.7037 28.5939 36.6667H26.3994Z" fill="white"/>
    <line x1="7.69946" y1="30.381" x2="34.0995" y2="30.381" stroke="white" stroke-width="2.09524"/>
    <line x1="-0.000488281" y1="15.7143" x2="35.1995" y2="15.7143" stroke="white" stroke-width="2.09524"/>
    <line x1="7.69946" y1="23.0476" x2="40.6995" y2="23.0476" stroke="white" stroke-width="2.09524"/>
</svg>
